<svg xmlns="http://www.w3.org/2000/svg" width="600" height="371" viewBox="0 0 600 371" role="img" aria-labelledby="title desc">
  <title id="title">Histogram of Dataset D</title>
  <desc id="desc">A histogram showing Dataset D with two major peaks, one around 25,000 and one around 75,000.</desc>
  <rect width="600" height="371" fill="#fff" />
  <text x="19" y="38" font-family="Arial, sans-serif" font-size="21" fill="#666">Histogram of Dataset D</text>
  <g font-family="Arial, sans-serif" font-size="12" fill="#000">
    <text x="18" y="260">0</text>
    <text x="18" y="221">100</text>
    <text x="18" y="182">200</text>
    <text x="18" y="142">300</text>
    <text x="18" y="104">400</text>
    <text x="18" y="65">500</text>
  </g>
  <g stroke="#ccc" stroke-width="1">
    <line x1="45" x2="582" y1="256" y2="256" />
    <line x1="45" x2="582" y1="217" y2="217" />
    <line x1="45" x2="582" y1="178" y2="178" />
    <line x1="45" x2="582" y1="138" y2="138" />
    <line x1="45" x2="582" y1="99" y2="99" />
    <line x1="45" x2="582" y1="60" y2="60" />
  </g>
  <path
    d="M45.0 255.2L45.0 256 M52.7 254.8L52.7 256 M60.3 253.6L60.3 256 M68.0 251.7L68.0 256 M75.7 248.6L75.7 256 M83.4 243.8L83.4 256 M91.0 237.2L91.0 256 M98.7 227.4L98.7 256 M106.4 214.8L106.4 256 M114.0 199.2L114.0 256 M121.7 180.3L121.7 256 M129.4 159.2L129.4 256 M137.1 136.8L137.1 256 M144.7 115.3L144.7 256 M152.4 96.1L152.4 256 M160.1 81.6L160.1 256 M167.7 73.3L167.7 256 M175.4 72.2L175.4 256 M183.1 78.0L183.1 256 M190.8 90.6L190.8 256 M198.4 108.6L198.4 256 M206.1 129.4L206.1 256 M213.8 151.7L213.8 256 M221.4 173.3L221.4 256 M229.1 193.3L229.1 256 M236.8 210.1L236.8 256 M244.5 223.9L244.5 256 M252.1 234.0L252.1 256 M259.8 241.9L259.8 256 M267.5 247.4L267.5 256 M275.1 250.5L275.1 256 M282.8 252.9L282.8 256 M290.5 254.0L290.5 256 M298.2 254.4L298.2 256 M305.8 254.4L305.8 256 M313.5 253.6L313.5 256 M321.2 252.1L321.2 256 M328.8 249.3L328.8 256 M336.5 244.6L336.5 256 M344.2 237.6L344.2 256 M351.9 227.4L351.9 256 M359.5 213.7L359.5 256 M367.2 196.0L367.2 256 M374.9 175.2L374.9 256 M382.5 152.1L382.5 256 M390.2 128.2L390.2 256 M397.9 106.3L397.9 256 M405.6 87.8L405.6 256 M413.2 76.1L413.2 256 M420.9 71.8L420.9 256 M428.6 76.1L428.6 256 M436.2 87.8L436.2 256 M443.9 106.3L443.9 256 M451.6 128.2L451.6 256 M459.3 152.1L459.3 256 M466.9 175.2L466.9 256 M474.6 196.0L474.6 256 M482.3 213.7L482.3 256 M489.9 227.4L489.9 256 M497.6 237.6L497.6 256 M505.3 244.6L505.3 256 M513.0 249.3L513.0 256 M520.6 252.1L520.6 256 M528.3 254.0L528.3 256 M536.0 254.8L536.0 256 M543.6 255.6L543.6 256 M551.3 255.6L551.3 256 M559.0 256.0L559.0 256 M566.7 256.0L566.7 256 M574.3 256.0L574.3 256 M582.0 256.0L582.0 256"
    stroke="#4285f4"
    stroke-width="3"
  />
  <g font-family="Arial, sans-serif" font-size="12" fill="#000">
    <text x="45.0" y="268" transform="rotate(90 45.0 268)">0.00</text>
    <text x="60.3" y="268" transform="rotate(90 60.3 268)">3,000.00</text>
    <text x="75.7" y="268" transform="rotate(90 75.7 268)">6,000.00</text>
    <text x="91.0" y="268" transform="rotate(90 91.0 268)">9,000.00</text>
    <text x="106.4" y="268" transform="rotate(90 106.4 268)">12,000.00</text>
    <text x="121.7" y="268" transform="rotate(90 121.7 268)">15,000.00</text>
    <text x="137.1" y="268" transform="rotate(90 137.1 268)">18,000.00</text>
    <text x="152.4" y="268" transform="rotate(90 152.4 268)">21,000.00</text>
    <text x="167.7" y="268" transform="rotate(90 167.7 268)">24,000.00</text>
    <text x="183.1" y="268" transform="rotate(90 183.1 268)">27,000.00</text>
    <text x="198.4" y="268" transform="rotate(90 198.4 268)">30,000.00</text>
    <text x="213.8" y="268" transform="rotate(90 213.8 268)">33,000.00</text>
    <text x="229.1" y="268" transform="rotate(90 229.1 268)">36,000.00</text>
    <text x="244.5" y="268" transform="rotate(90 244.5 268)">39,000.00</text>
    <text x="259.8" y="268" transform="rotate(90 259.8 268)">42,000.00</text>
    <text x="275.1" y="268" transform="rotate(90 275.1 268)">45,000.00</text>
    <text x="290.5" y="268" transform="rotate(90 290.5 268)">48,000.00</text>
    <text x="305.8" y="268" transform="rotate(90 305.8 268)">51,000.00</text>
    <text x="321.2" y="268" transform="rotate(90 321.2 268)">54,000.00</text>
    <text x="336.5" y="268" transform="rotate(90 336.5 268)">57,000.00</text>
    <text x="351.9" y="268" transform="rotate(90 351.9 268)">60,000.00</text>
    <text x="367.2" y="268" transform="rotate(90 367.2 268)">63,000.00</text>
    <text x="382.5" y="268" transform="rotate(90 382.5 268)">66,000.00</text>
    <text x="397.9" y="268" transform="rotate(90 397.9 268)">69,000.00</text>
    <text x="413.2" y="268" transform="rotate(90 413.2 268)">72,000.00</text>
    <text x="428.6" y="268" transform="rotate(90 428.6 268)">75,000.00</text>
    <text x="443.9" y="268" transform="rotate(90 443.9 268)">78,000.00</text>
    <text x="459.3" y="268" transform="rotate(90 459.3 268)">81,000.00</text>
    <text x="474.6" y="268" transform="rotate(90 474.6 268)">84,000.00</text>
    <text x="489.9" y="268" transform="rotate(90 489.9 268)">87,000.00</text>
    <text x="505.3" y="268" transform="rotate(90 505.3 268)">90,000.00</text>
    <text x="520.6" y="268" transform="rotate(90 520.6 268)">93,000.00</text>
    <text x="536.0" y="268" transform="rotate(90 536.0 268)">96,000.00</text>
    <text x="551.3" y="268" transform="rotate(90 551.3 268)">99,000.00</text>
    <text x="566.7" y="268" transform="rotate(90 566.7 268)">102,000.00</text>
    <text x="582.0" y="268" transform="rotate(90 582.0 268)">105,000.00</text>
  </g>
  <text x="287" y="350" font-family="Arial, sans-serif" font-size="12" fill="#000">Dataset D</text>
</svg>
